<svg width="87" height="87" viewBox="0 0 87 87" fill="none" xmlns="http://www.w3.org/2000/svg">
<path d="M65.7885 20.5275C64.3864 19.1254 62.1216 19.1254 60.7195 20.5275L43.14 38.0711L25.5605 20.4915C24.1584 19.0895 21.8935 19.0895 20.4915 20.4915C19.0894 21.8936 19.0894 24.1584 20.4915 25.5605L38.0711 43.14L20.4915 60.7195C19.0894 62.1216 19.0894 64.3864 20.4915 65.7885C21.8935 67.1905 24.1584 67.1905 25.5605 65.7885L43.14 48.209L60.7195 65.7885C62.1216 67.1905 64.3864 67.1905 65.7885 65.7885C67.1905 64.3864 67.1905 62.1216 65.7885 60.7195L48.2089 43.14L65.7885 25.5605C67.1546 24.1944 67.1546 21.8936 65.7885 20.5275Z" fill="white"/>
</svg>
