<svg width="87" height="87" viewBox="0 0 87 87" fill="white" xmlns="http://www.w3.org/2000/svg">
<path d="M14.38 64.71H71.9C73.8773 64.71 75.495 63.0923 75.495 61.115C75.495 59.1377 73.8773 57.52 71.9 57.52H14.38C12.4028 57.52 10.785 59.1377 10.785 61.115C10.785 63.0923 12.4028 64.71 14.38 64.71ZM14.38 46.735H71.9C73.8773 46.735 75.495 45.1172 75.495 43.14C75.495 41.1627 73.8773 39.545 71.9 39.545H14.38C12.4028 39.545 10.785 41.1627 10.785 43.14C10.785 45.1172 12.4028 46.735 14.38 46.735ZM10.785 25.165C10.785 27.1422 12.4028 28.76 14.38 28.76H71.9C73.8773 28.76 75.495 27.1422 75.495 25.165C75.495 23.1877 73.8773 21.57 71.9 21.57H14.38C12.4028 21.57 10.785 23.1877 10.785 25.165Z" fill="white"/>
</svg>
