<?xml version="1.0" standalone="no"?>
<!DOCTYPE svg PUBLIC "-//W3C//DTD SVG 20010904//EN"
 "http://www.w3.org/TR/2001/REC-SVG-20010904/DTD/svg10.dtd">
<svg version="1.0" xmlns="http://www.w3.org/2000/svg"
 width="980.000000pt" height="980.000000pt" viewBox="0 0 980.000000 980.000000"
 preserveAspectRatio="xMidYMid meet">

<g transform="translate(0.000000,980.000000) scale(0.100000,-0.100000)"
fill="#b9b9b9" stroke="none">
<path d="M4560 9789 c-1035 -75 -1998 -463 -2800 -1128 -150 -123 -501 -475
-622 -621 -881 -1068 -1270 -2403 -1098 -3765 119 -934 501 -1801 1124 -2545
98 -117 370 -393 496 -504 1328 -1166 3158 -1531 4825 -962 895 305 1700 879
2281 1627 735 946 1100 2126 1024 3314 -70 1094 -491 2109 -1216 2935 -112
128 -386 398 -509 501 -763 642 -1665 1026 -2665 1134 -174 19 -664 27 -840
14z m-1984 -1599 c222 -57 408 -208 510 -415 61 -123 84 -222 84 -354 0 -367
-231 -671 -587 -773 -102 -29 -304 -31 -403 -4 -269 74 -471 263 -562 526 -31
91 -32 102 -33 245 0 130 3 160 23 225 97 308 342 520 657 569 81 13 218 4
311 -19z m4314 -2084 c150 -19 243 -39 360 -78 504 -165 804 -559 914 -1203
50 -290 49 -256 53 -1797 l4 -1448 -685 0 -685 0 -4 1263 c-3 1108 -6 1275
-20 1372 -25 164 -52 259 -101 360 -78 157 -174 242 -336 299 -75 26 -101 30
-230 34 -118 3 -163 0 -242 -16 -327 -68 -515 -289 -582 -683 -30 -178 -35
-398 -36 -1516 l0 -1113 -685 0 -685 0 0 2215 0 2215 660 0 660 0 0 -301 c0
-172 4 -299 9 -297 5 2 37 46 72 98 203 304 550 519 954 591 129 22 443 25
605 5z m-3830 -2311 l0 -2215 -685 0 -685 0 0 2215 0 2215 685 0 685 0 0
-2215z"/>
</g>
</svg>
